<mxfile host="app.diagrams.net" modified="2024-05-01T08:15:23.360Z" agent="Mozilla/5.0 (Windows NT 10.0; Win64; x64) AppleWebKit/537.36 (KHTML, like Gecko) Chrome/122.0.0.0 Safari/537.36 Edg/122.0.0.0" version="24.3.1" etag="QXkD4o9KUpGVBWSAFrg7" type="github">
  <diagram name="第 1 页" id="XbGKjKhdLMRXKV8-RK5B">
    <mxGraphModel>
      <root>
        <mxCell id="0" />
        <mxCell id="1" parent="0" />
      </root>
    </mxGraphModel>
  </diagram>
</mxfile>
